<?xml version="1.0" encoding="UTF-8"?>
<svg id="_图层_1" data-name="图层 1" xmlns="http://www.w3.org/2000/svg" viewBox="0 0 347.21 323.67">
  <defs>
    <style>
      .cls-1 {
        fill: #b86122;
      }

      .cls-2 {
        fill: #da8a3f;
      }

      .cls-3 {
        fill: #b9621e;
      }
    </style>
  </defs>
  <path class="cls-2" d="M221.1,123.61h0s26.9,2.59,26.9,2.59c2.48.24,4.92.76,7.28,1.56l.11.04c4.07,1.38,7.74,3.75,10.66,6.9l32.58,35.04c.81.87,1.56,1.8,2.25,2.77h0c2.07,2.93,3.34,6.35,3.68,9.92l5.61,75.32c.04.56-.67.83-1.01.39-1.76-2.31-9.64-6.02-11.5-7.2-17.24-10.95-56.79-12.17-73.94-23.17-16.43-10.54-45.75-42.97-56.96-53.92-1.55-1.51-2.6-4.51-2.32-6.66,4.67-34.97,24.7-55.21,30.44-60.37.26-.23,3.38-2.93,3.72-2.85,6.47,1.69,17.64-.13,17.09,10.35l5.4,9.28Z"/>
  <g>
    <g>
      <path class="cls-2" d="M78.3,146.4h0s-11.21-24.59-11.21-24.59c-1.03-2.27-1.8-4.65-2.29-7.09l-.02-.11c-.84-4.22-.62-8.57.64-12.68l14.06-45.73c.35-1.14.78-2.25,1.27-3.33h0c1.5-3.26,3.83-6.07,6.75-8.15L149.93,2.19c.46-.32,1.05.16.84.68-1.12,2.68-.39,11.36-.48,13.55-.86,20.4,17.85,55.27,16.9,75.62-.91,19.5-14.34,61.1-18.21,76.29-.54,2.1-2.61,4.51-4.61,5.34-32.62,13.44-60.17,6.21-67.5,3.82-.33-.11-4.23-1.46-4.32-1.8-1.78-6.45-8.94-15.21.41-19.98l5.34-9.32Z"/>
      <path class="cls-1" d="M147.83,8.27C146.7-.2,154.06-.05,157.51.01c3.9.07,9.86,3.25,12.94,4.8,0,0,36.55,17.85,44.41,28.44,2.05,2.76,20.67,42.77,23.06,58.25.5,3.25.49,10.05-.63,13.15-2.32,6.45-6.78,19.97-11.6,24.85-6.91,6.98-26.24,13.39-34.88,18.06-4.79,2.59-15.57,10.7-14.62,6.04,3.17-15.56,15.55-32.12,21.21-39.06.29-.36-.19-.83-.54-.52-6.71,5.95-21.59,20.82-28.27,40.73-1,2.99-2.89,10.61-3.71,13.97-.06.25-.43.21-.43-.05-.1-4.2-.4-14.89-1.01-16.92-1.27-4.25-5.83-13.72-5.83-13.72-.44-.97-.55-2.06-.3-3.1,0,0,9.48-31.08,9.75-41.81.54-21.14-12.96-37.82-19.23-84.84Z"/>
    </g>
    <g>
      <circle class="cls-3" cx="98.17" cy="110.88" r="3.41"/>
      <circle class="cls-3" cx="88.21" cy="94.29" r="3.41"/>
      <circle class="cls-3" cx="104.28" cy="94.21" r="3.41"/>
      <circle class="cls-3" cx="94.68" cy="78.74" r="3.41"/>
    </g>
  </g>
  <g>
    <g>
      <path class="cls-2" d="M169.45,258.69h0s-15.69,22-15.69,22c-1.45,2.03-3.12,3.88-4.99,5.53l-.09.08c-3.23,2.84-7.11,4.83-11.3,5.79l-46.64,10.69c-1.16.27-2.34.45-3.52.56h0c-3.57.33-7.17-.29-10.43-1.78l-68.04-32.8c-.51-.24-.39-.99.17-1.07,2.88-.37,10.04-5.34,11.98-6.36,18.1-9.46,38.94-43.09,57.04-52.45s60.08-18.13,75.18-22.37c2.09-.59,5.21,0,6.93,1.33,27.95,21.53,35.46,49,37.06,56.54.07.34.85,4.4.6,4.64-4.7,4.76-8.7,15.35-17.51,9.63l-10.74.04Z"/>
      <path class="cls-1" d="M15.06,267.54c-6.77,5.21-10.32-1.23-11.99-4.26-1.89-3.41-2.11-10.16-2.31-13.61,0,0-2.82-40.58,2.43-52.68,1.37-3.16,26.7-39.29,38.91-49.09,2.57-2.06,8.46-5.45,11.7-6.03,6.75-1.21,20.69-4.11,27.32-2.37,9.5,2.49,24.72,16.03,33.08,21.18,4.64,2.86,17.06,8.14,12.54,9.65-15.06,5.04-35.59,2.59-44.43,1.16-.46-.07-.62.58-.18.73,8.51,2.83,28.82,8.29,49.41,4.12,3.09-.63,10.63-2.8,13.96-3.77.25-.07.39.27.17.4-3.58,2.18-12.69,7.79-14.15,9.33-3.05,3.22-8.97,11.91-8.97,11.91-.62.87-1.51,1.5-2.53,1.81,0,0-31.65,7.33-41.08,12.46-18.58,10.1-26.28,30.13-63.86,59.08Z"/>
    </g>
    <g>
      <circle class="cls-3" cx="128.76" cy="259.23" r="3.41"/>
      <circle class="cls-3" cx="119.37" cy="276.16" r="3.41"/>
      <circle class="cls-3" cx="111.26" cy="262.28" r="3.41"/>
      <circle class="cls-3" cx="102.66" cy="278.33" r="3.41"/>
    </g>
  </g>
  <path class="cls-1" d="M305.96,252.89c7.9,3.25,4.09,9.55,2.31,12.52-2.01,3.34-7.74,6.91-10.63,8.81,0,0-33.74,22.73-46.83,24.24-3.42.39-47.37-3.48-61.97-9.15-3.07-1.19-8.95-4.6-11.07-7.12-4.42-5.24-13.91-15.86-15.72-22.47-2.59-9.47,1.52-29.42,1.8-39.24.15-5.45-1.48-18.84,2.08-15.68,11.89,10.53,20.04,29.53,23.22,37.9.16.43.81.24.72-.21-1.8-8.78-7.23-29.11-21.14-44.85-2.08-2.36-7.74-7.8-10.25-10.2-.19-.18.03-.47.26-.35,3.68,2.01,13.09,7.1,15.15,7.59,4.32,1.03,14.8,1.81,14.8,1.81,1.06.11,2.06.56,2.84,1.29,0,0,22.18,23.75,31.33,29.35,18.04,11.04,39.23,7.69,83.09,25.77Z"/>
  <g>
    <circle class="cls-3" cx="241.92" cy="158.58" r="3.41"/>
    <circle class="cls-3" cx="261.27" cy="158.24" r="3.41"/>
    <circle class="cls-3" cx="253.3" cy="172.21" r="3.41"/>
    <circle class="cls-3" cx="271.5" cy="171.63" r="3.41"/>
  </g>
</svg>